# xmcd
#
# Track frame offsets:
# 150
# 16047
# 37419
# 54827
# 77098
# 100104
# 115556
# 133591
# 153125
# 165475
# 181455
# 194664
# 223885
# 244361
# 257856
# 272685
#
# Disc length: 3865 seconds
#
#
# Revision: 1
# Processed by: cddbd v1.4PL0 Copyright (c) Steve Scherf et al.
# Submitted via: HACP 1.11
#
DISCID=db0f1710
DTITLE=Irish Blues Club - Forty Shades of Blue (Vol. 1)
DYEAR=1996
DGENRE=
TTITLE0=Parchman Farm - Two Timing Woman
TTITLE1=The Mary Stokes Band - Through With You
TTITLE2=International Blues Band - Downtown Manhattan
TTITLE3=Ben Prevo - Can't Make You Love Me (The Letter)
TTITLE4=Pat Martin - Alabama Woman Blues
TTITLE5=The Business - Saturday Night Boogie
TTITLE6=Dermot Byrne - Fortune Teller Blues
TTITLE7=Tom Harte Quartet - Minor Mood
TTITLE8=Gallagher and Kinsella - Foggy Mountain Special (Banjo Bounce)
TTITLE9=John White - End My Misery
TTITLE10=The Legendary Hoods - That Crazy Feeling
TTITLE11=Seanie Foy and The Tribesmen - 24 Hours "A Minute"
TTITLE12=The Edsel Boys - The Edsel Boy Blues
TTITLE13=Dave McHugh - C.W. Blues
TTITLE14=The Leftovers - Time Out !!
TTITLE15=The Boll Weavils - T'aint Long For Day
EXTD=Irish Blues Club Compilation\n\nWebsite: http://www.irishblues.com
EXTT0=
EXTT1=
EXTT2=
EXTT3=
EXTT4=
EXTT5=
EXTT6=
EXTT7=
EXTT8=
EXTT9=
EXTT10=
EXTT11=
EXTT12=
EXTT13=
EXTT14=
EXTT15=
PLAYORDER=
